inDegrees=yes
name=ik_S47_A10_T02
DataType=double
version=3
OpenSimVersion=4.3-2021-08-27-4bc7ad9
endheader
time	pelvis_tilt	pelvis_list	pelvis_rotation	pelvis_tx	pelvis_ty	pelvis_tz	hip_flexion_r	hip_adduction_r	hip_rotation_r	knee_angle_r	knee_angle_r_beta	ankle_angle_r	subtalar_angle_r	mtp_angle_r	hip_flexion_l	hip_adduction_l	hip_rotation_l	knee_angle_l	knee_angle_l_beta	ankle_angle_l	subtalar_angle_l	mtp_angle_l	lumbar_extension	lumbar_bending	lumbar_rotation	arm_flex_r	arm_add_r	arm_rot_r	elbow_flex_r	pro_sup_r	wrist_flex_r	wrist_dev_r	arm_flex_l	arm_add_l	arm_rot_l	elbow_flex_l	pro_sup_l	wrist_flex_l	wrist_dev_l
0	0	0	0	0	0.9399999999999999	0	0	0	0	0	0	0	0	0	0	0	0	0	0	0	0	0	0	0	0	0	0	0	0	89.99999999963507	0	0	0	0	0	0	89.99999999869995	0	0
0.02	-1.849607514561537	-0.8862786924940821	20.81283441204597	0	0.9399999999999999	0	2.279147982001713	-1.062662396189443	-0.7665692605153076	3.548452235679664	0.06193217486236394	0	0	0	2.279147982001713	-1.062662396189443	-0.7665692605153076	3.548452235679664	0.06193217486236394	0	0	0	-1.498498347868074	0.04076007980250672	7.753918343286291	27.59931960201773	6.73338052569424	6.444678997432214	3.274002189255486	66.91229022724086	0	0	26.04214799766621	7.530420861383184	10.78153209785849	5.732496305993174	71.30746011628212	0	0
0.04	-1.853665911804128	-0.8782757767806124	20.83261862889331	0	0.9399999999999999	0	2.419911526995135	-1.124861607573376	-0.818320240171593	3.656303623719965	0.06381453668651323	0	0	0	2.419911526995135	-1.124861607573376	-0.818320240171593	3.656303623719965	0.06381453668651323	0	0	0	-1.500704901178518	0.04874808434958198	7.747211249008158	27.56979630525613	6.747225451759354	6.44819056950795	3.241927793005166	66.9268471434773	0	0	25.96915512638233	7.541602131548709	10.80417642560814	5.713445152832858	71.37188075122167	0	0
0.06	-1.850988873329276	-0.8680090751698946	20.84935909781775	0	0.9399999999999999	0	2.560731327098174	-1.18504998529599	-0.8703767982149331	3.751343179262311	0.06547328985035919	0	0	0	2.560731327098174	-1.18504998529599	-0.8703767982149331	3.751343179262311	0.06547328985035919	0	0	0	-1.495944526744183	0.05642535551916618	7.733913590085524	27.53737688701791	6.758481084580342	6.412810099926337	3.159277052837812	66.9859368857352	0	0	25.89042155400878	7.538277581444635	10.78709580376884	5.669067857715169	71.45847582542987	0	0
0.08	-1.851658094083954	-0.8645814331053079	20.86496237700326	0	0.9399999999999999	0	2.682750246006854	-1.23730857089457	-0.9153434961440862	3.835605905299603	0.0669439518564159	0	0	0	2.682750246006854	-1.23730857089457	-0.9153434961440862	3.835605905299603	0.0669439518564159	0	0	0	-1.496508646609405	0.05916255181651112	7.725470569441389	27.51313758830571	6.777834590802398	6.354114634076327	3.083882864585445	67.0837984719075	0	0	25.8446084562961	7.528059242159554	10.75219583172557	5.589506632504992	71.558023484342	0	0
0.1	-1.845574835801431	-0.8563763468768708	20.89946421540472	0	0.9399999999999999	0	2.851641186081644	-1.309029291872207	-0.9771407476050334	3.955889130070486	0.06904329016358421	0	0	0	2.851641186081644	-1.309029291872207	-0.9771407476050334	3.955889130070486	0.06904329016358421	0	0	0	-1.489331408826032	0.06340767798504655	7.729301967830208	27.46368982558479	6.779978444700922	6.288259676848861	3.018602740005199	67.15427323461154	0	0	25.77002069868787	7.534106014851493	10.73687227271365	5.625038506812078	71.62657871905925	0	0
0.12	-1.854814587015107	-0.856095276901588	20.91175112309089	0	0.9399999999999999	0	2.925932465911091	-1.344806116375953	-1.003916438078614	4.029613621575466	0.07033002527970469	0	0	0	2.925932465911091	-1.344806116375953	-1.003916438078614	4.029613621575466	0.07033002527970469	0	0	0	-1.498393369978927	0.0666414760725753	7.727693084732085	27.42029799838627	6.785688573030056	6.265156320753753	2.971859714899993	67.22522703644763	0	0	25.73494797898789	7.534980627621192	10.71344630188049	5.59663898181442	71.71173918612503	0	0
0.14	-1.855482293580566	-0.8530642211932152	20.92628507198686	0	0.9399999999999999	0	2.933789213371986	-1.34884302403367	-1.006586823886367	4.040873260618709	0.07052654305359539	0	0	0	2.933789213371986	-1.34884302403367	-1.006586823886367	4.040873260618709	0.07052654305359539	0	0	0	-1.497930220370612	0.06954597238775537	7.731385084642504	27.29280590211514	6.807988922303251	6.223664828189841	2.935095140302483	67.27173378362433	0	0	25.7330054400105	7.548163312755895	10.72855570538395	5.516828227189566	71.72807026341998	0	0
0.16	-1.848565654382508	-0.844509941565971	20.94537780767334	0	0.9399999999999999	0	2.953128418958153	-1.358861606386611	-1.01317205214285	4.068580722040983	0.07101012948278339	0	0	0	2.953128418958153	-1.358861606386611	-1.01317205214285	4.068580722040983	0.07101012948278339	0	0	0	-1.488631522874249	0.07522835041683765	7.725375562849463	27.22071180228112	6.80371434165637	6.233414930410034	2.800358297627237	67.40442716343624	0	0	25.6430146507898	7.551028588323219	10.69745550866278	5.427387551352107	71.80381378907713	0	0
0.18	-1.862540119170634	-0.8615341849380909	20.96019361107508	0	0.9399999999999999	0	2.957680717179271	-1.361200669932278	-1.014719648224382	4.075093523248939	0.07112379930739007	0	0	0	2.957680717179271	-1.361200669932278	-1.014719648224382	4.075093523248939	0.07112379930739007	0	0	0	-1.507790455643831	0.06429511112834393	7.725541416716031	27.2163594781448	6.825002354894165	6.24882841176012	2.782369059990289	67.41801779624852	0	0	25.55878111736729	7.566428943927136	10.70523214121959	5.429263119155068	71.82779989710197	0	0
0.2	-1.851747923276004	-0.8558415473507637	20.97306290424651	0	0.9399999999999999	0	3.101236375605766	-1.420565609815573	-1.067156676030029	4.169663076853531	0.07277434938993146	0	0	0	3.101236375605766	-1.420565609815573	-1.067156676030029	4.169663076853531	0.07277434938993146	0	0	0	-1.4971773195316	0.06512629939084923	7.712683334828523	27.18492668473347	6.827078485224223	6.238950004915002	2.668128604234561	67.4869294658605	0	0	25.46790158273711	7.562070371818828	10.63691424472041	5.399147194338481	71.83958721209819	0	0
0.22	-1.861973804381972	-0.8731893571289905	21.00374621778268	0	0.9399999999999999	0	3.102035881547036	-1.420965088682823	-1.067426950660977	4.170803213774438	0.07279424853312487	4.041051908615257e-35	0	0	3.102035881547036	-1.420965088682823	-1.067426950660977	4.170803213774438	0.07279424853312487	4.041051908615257e-35	0	0	-1.512794607398338	0.05225657941017329	7.722920852651585	27.17538658887716	6.829025410999831	6.249005442156237	2.666244775319574	67.4861277194486	0	0	25.45721425580044	7.567007881347389	10.62261257028723	5.396629229273229	71.83526975003267	0	0
0.24	-1.86861494507733	-0.8702788852548416	21.01630036983759	0	0.9399999999999999	0	3.315539941230574	-1.511148526656042	-1.144403277701454	4.333480480707264	0.07563350245924837	0	0	0	3.315539941230574	-1.511148526656042	-1.144403277701454	4.333480480707264	0.07563350245924837	0	0	0	-1.520172958155612	0.05673376746418358	7.697512985641436	27.17500987241374	6.833839019273591	6.28407920675245	2.659212137091969	67.44136444674714	0	0	25.39888010342066	7.606655831928434	10.55820132802388	5.471312335629198	71.66579369494045	0	0
